<svg width="32" height="32" viewBox="0 0 32 32" fill="none" xmlns="http://www.w3.org/2000/svg">
<path d="M25.3333 26.6666H6.66667C4.53333 26.6666 4 24.8893 4 23.9999V7.99992C4 7.29267 4.28095 6.6144 4.78105 6.1143C5.28115 5.6142 5.95942 5.33325 6.66667 5.33325H20C20.7072 5.33325 21.3855 5.6142 21.8856 6.1143C22.3857 6.6144 22.6667 7.29267 22.6667 7.99992V15.9999M25.3333 26.6666C24.444 26.6666 22.6667 26.1333 22.6667 23.9999V15.9999M25.3333 26.6666C27.4667 26.6666 28 24.8893 28 23.9999V15.9999H22.6667" stroke="#8F8F8F" stroke-width="2" stroke-linecap="round" stroke-linejoin="round"/>
<path d="M9.33331 21.3332H17.3333M16 13.3332C16 14.0404 15.719 14.7187 15.2189 15.2188C14.7188 15.7189 14.0406 15.9998 13.3333 15.9998C12.6261 15.9998 11.9478 15.7189 11.4477 15.2188C10.9476 14.7187 10.6666 14.0404 10.6666 13.3332C10.6666 12.6259 10.9476 11.9476 11.4477 11.4476C11.9478 10.9475 12.6261 10.6665 13.3333 10.6665C14.0406 10.6665 14.7188 10.9475 15.2189 11.4476C15.719 11.9476 16 12.6259 16 13.3332Z" stroke="#8F8F8F" stroke-width="2" stroke-linecap="round" stroke-linejoin="round"/>
</svg>
