<svg width="64" height="64" viewBox="0 0 64 64" fill="none" xmlns="http://www.w3.org/2000/svg">
<g clip-path="url(#clip0_179_25)">
<path d="M53.375 0H10.625C4.75697 0 0 4.87895 0 10.8974V53.1026C0 59.121 4.75697 64 10.625 64H53.375C59.243 64 64 59.121 64 53.1026V10.8974C64 4.87895 59.243 0 53.375 0Z" fill="#470137"/>
<path d="M33.8636 19.0089L26.1181 32.2894L34.4048 46.3915C34.4582 46.4902 34.4729 46.6061 34.4465 46.7159C34.4337 46.7628 34.406 46.7744 34.3636 46.7761L34.3165 46.7754L34.2593 46.7739C34.2283 46.7739 34.1936 46.7754 34.1551 46.7819H28.1803L28.063 46.7799C27.741 46.7711 27.5089 46.7232 27.3676 46.4779C26.8147 45.3591 26.2594 44.2416 25.7017 43.1255C25.2028 42.1299 24.6903 41.1418 24.1644 40.1615L23.9321 39.7297C23.303 38.5683 22.6853 37.4003 22.0791 36.2259H22.0374C21.4775 37.388 20.9014 38.5417 20.3092 39.6864C19.712 40.8401 19.122 41.9867 18.5393 43.1255C17.9563 44.2652 17.3594 45.3972 16.7489 46.5212C16.6507 46.7504 16.4875 46.7983 16.2603 46.8061L16.1657 46.8076H10.4609L10.4361 46.8084L10.3547 46.8159C10.3093 46.8187 10.2822 46.8086 10.2734 46.7376C10.2578 46.6321 10.2801 46.5243 10.336 46.4348L18.3728 32.7219L10.544 18.9661C10.4609 18.8512 10.4471 18.7575 10.5023 18.685C10.5331 18.648 10.5717 18.619 10.615 18.6002C10.6584 18.5814 10.7054 18.5733 10.7523 18.5766H16.6237C16.7518 18.5694 16.8798 18.5916 16.9986 18.6416C17.098 18.7003 17.1836 18.7817 17.2484 18.8797C17.7481 20.0333 18.3034 21.187 18.9142 22.3402C19.5203 23.486 20.138 24.6252 20.7672 25.7576C21.3869 26.8723 21.9634 28.0124 22.4954 29.175H22.5371C23.0823 28.0127 23.6446 26.859 24.2236 25.7145C24.7922 24.5898 25.3753 23.4575 25.9723 22.3185C26.5617 21.194 27.1378 20.0621 27.7005 18.923C27.7325 18.8162 27.7897 18.7195 27.8671 18.6416C27.9699 18.5875 28.0855 18.565 28.2002 18.5766H33.6553C33.7055 18.5637 33.7583 18.5679 33.8059 18.5888C33.8535 18.6097 33.8933 18.6461 33.9193 18.6926C33.9453 18.739 33.956 18.7929 33.95 18.8462C33.9439 18.8996 33.9213 18.9494 33.8857 18.9882L33.8638 19.0094L33.8636 19.0089ZM46.1016 47.3399L45.8145 47.3431C43.8977 47.3735 41.9986 46.9598 40.2551 46.132C38.631 45.3512 37.2733 44.0765 36.3616 42.4766C35.4424 40.8907 34.9705 38.9144 34.9468 36.5483L34.9458 36.3556C34.9302 34.3702 35.4186 32.4157 36.3619 30.6888C37.3059 28.9797 38.6821 27.5715 40.3414 26.6168L40.4843 26.5362C42.2883 25.4979 44.4677 24.9787 47.022 24.9787L47.1336 24.98L47.2611 24.9843L47.4042 24.9908L47.5632 25.0004L47.8304 25.02L48.1331 25.0452L48.3544 25.0654V16.5434C48.3544 16.3419 48.4379 16.2406 48.6042 16.2406H53.8512C53.8851 16.2355 53.9197 16.2388 53.9523 16.25C53.9848 16.2613 54.0143 16.2802 54.0386 16.3054C54.0628 16.3306 54.0811 16.3613 54.0919 16.3951C54.1027 16.4289 54.1058 16.4648 54.101 16.5001V42.0658C54.101 42.495 54.117 42.9575 54.149 43.4522L54.2266 44.5744L54.2678 45.2235C54.2729 45.3134 54.2518 45.4028 54.2072 45.48C54.1626 45.5572 54.0966 45.6186 54.0178 45.6562C52.6642 46.2426 51.2543 46.6776 49.812 46.9537C48.5875 47.1885 47.3465 47.3176 46.1016 47.3399ZM48.3544 41.9791V30.1697C48.1294 30.1064 47.8996 30.063 47.6675 30.04C47.3838 30.0103 47.0988 29.9958 46.8137 29.9966C45.8032 29.9863 44.8046 30.2234 43.8989 30.6888C43.0166 31.1444 42.2633 31.8301 41.7127 32.6788C41.163 33.5141 40.8785 34.6047 40.8599 35.9509L40.8589 36.0962C40.8386 37.0391 40.9869 37.9777 41.2961 38.8645C41.5478 39.5791 41.9457 40.2286 42.4624 40.768C42.9569 41.2643 43.5555 41.6344 44.2112 41.8494C44.9038 42.0824 45.6277 42.1993 46.3557 42.1957C46.7441 42.1957 47.1049 42.1811 47.4384 42.1522C47.7043 42.1314 47.9678 42.0859 48.2259 42.0161L48.3544 41.9791Z" fill="#FF61F6"/>
</g>
<defs>
<clipPath id="clip0_179_25">
<rect width="64" height="64" fill="white"/>
</clipPath>
</defs>
</svg>
