<svg width="64" height="64" viewBox="0 0 64 64" fill="none" xmlns="http://www.w3.org/2000/svg">
<g clip-path="url(#clip0_184_24)">
<path d="M49 0H15C6.71573 0 0 6.71573 0 15V49C0 57.2843 6.71573 64 15 64H49C57.2843 64 64 57.2843 64 49V15C64 6.71573 57.2843 0 49 0Z" fill="#001E36"/>
<path d="M13.4 45.5099V18.0699C13.4 17.8832 13.48 17.7767 13.6668 17.7767C14.12 17.7767 14.5468 17.7767 15.16 17.7499C15.8 17.7232 16.4668 17.7232 17.1868 17.6967C17.9068 17.6699 18.68 17.6699 19.5068 17.6432C20.3333 17.6167 21.1333 17.6167 21.9333 17.6167C24.12 17.6167 25.9333 17.8832 27.4268 18.4432C28.7654 18.8978 29.986 19.6448 31 20.6299C31.8593 21.4921 32.5232 22.5288 32.9468 23.6699C33.3468 24.7899 33.56 25.9367 33.56 27.1367C33.56 29.4299 33.0268 31.3232 31.96 32.8167C30.8933 34.3099 29.4 35.4299 27.6668 36.0699C25.8533 36.7367 23.8533 36.9767 21.6668 36.9767C21.0268 36.9767 20.6 36.9767 20.3333 36.9499C20.0668 36.9232 19.6933 36.9232 19.1868 36.9232V45.4832C19.2133 45.6699 19.08 45.8299 18.8933 45.8567H13.72C13.5068 45.8567 13.4 45.7499 13.4 45.5099ZM19.2133 22.9232V31.8832C19.5868 31.9099 19.9333 31.9367 20.2533 31.9367H21.6668C22.7068 31.9367 23.7468 31.7767 24.7333 31.4567C25.5868 31.2167 26.3333 30.7099 26.92 30.0432C27.48 29.3767 27.7468 28.4699 27.7468 27.2967C27.7718 26.4633 27.559 25.6401 27.1333 24.9232C26.68 24.2299 26.04 23.6967 25.2668 23.4032C24.28 23.0032 23.2133 22.8432 22.12 22.8699C21.4268 22.8699 20.8133 22.8699 20.3068 22.8967C19.7733 22.8699 19.4 22.8967 19.2133 22.9232ZM50.2 30.2567C49.4 29.8299 48.5468 29.5367 47.64 29.3499C46.6533 29.1367 45.6668 29.0032 44.6533 29.0032C44.12 28.9767 43.56 29.0567 43.0533 29.1899C42.7068 29.2699 42.4133 29.4567 42.2268 29.7232C42.0933 29.9367 42.0133 30.2032 42.0133 30.4432C42.0133 30.6832 42.12 30.9232 42.28 31.1367C42.52 31.4299 42.84 31.6699 43.1868 31.8567C43.805 32.1769 44.4367 32.4705 45.08 32.7367C46.52 33.2167 47.9068 33.8832 49.1868 34.6832C50.0668 35.2432 50.7868 35.9899 51.2933 36.8967C51.72 37.7499 51.9333 38.6832 51.9068 39.6432C51.9333 40.8967 51.56 42.1499 50.8668 43.1899C50.1229 44.2544 49.0851 45.0791 47.88 45.5632C46.5733 46.1232 44.9733 46.4167 43.0533 46.4167C41.8268 46.4167 40.6268 46.3099 39.4268 46.0699C38.4863 45.9075 37.5716 45.6206 36.7068 45.2167C36.52 45.1099 36.3868 44.9232 36.4133 44.7099V40.0699C36.4133 39.9899 36.44 39.8832 36.52 39.83C36.6 39.7767 36.68 39.8032 36.76 39.8567C37.8 40.4699 38.8933 40.8967 40.0668 41.1632C41.08 41.4299 42.1468 41.5632 43.2133 41.5632C44.2268 41.5632 44.9468 41.4299 45.4268 41.1899C45.8533 41.0032 46.1468 40.5499 46.1468 40.0699C46.1468 39.6967 45.9333 39.3499 45.5068 39.0032C45.08 38.6567 44.2 38.2567 42.8933 37.7499C41.5529 37.2776 40.2799 36.6322 39.1068 35.83C38.2712 35.2343 37.5788 34.46 37.08 33.5632C36.6533 32.7099 36.44 31.7767 36.4668 30.8432C36.4668 29.6967 36.7868 28.6032 37.3733 27.6167C38.04 26.5499 39.0268 25.6967 40.1733 25.1632C41.4268 24.5232 43 24.2299 44.8933 24.2299C45.9868 24.2299 47.1068 24.3099 48.2 24.4699C49 24.5767 49.7733 24.7899 50.4933 25.0832C50.6 25.1099 50.7068 25.2167 50.76 25.3232C50.7868 25.4299 50.8133 25.5367 50.8133 25.6432V29.9899C50.8133 30.0967 50.76 30.2032 50.68 30.2567C50.44 30.3099 50.3068 30.3099 50.2 30.2567Z" fill="#31A8FF"/>
</g>
<defs>
<clipPath id="clip0_184_24">
<rect width="64" height="64" fill="white"/>
</clipPath>
</defs>
</svg>
