<svg width="64" height="64" viewBox="0 0 64 64" fill="none" xmlns="http://www.w3.org/2000/svg">
<g clip-path="url(#clip0_190_24)">
<path d="M49 0H15C6.71573 0 0 6.71573 0 15V49C0 57.2843 6.71573 64 15 64H49C57.2843 64 64 57.2843 64 49V15C64 6.71573 57.2843 0 49 0Z" fill="#CD6799"/>
<mask id="mask0_190_24" style="mask-type:luminance" maskUnits="userSpaceOnUse" x="7" y="13" width="50" height="38">
<path d="M7 13.25H57V50.7272H7V13.25Z" fill="white"/>
</mask>
<g mask="url(#mask0_190_24)">
<path d="M50.0268 34.7908C48.2833 34.7998 46.7683 35.2198 45.4995 35.8403C45.034 34.9185 44.5685 34.097 44.4863 33.4945C44.395 32.7918 44.2855 32.3628 44.395 31.523C44.5045 30.6833 44.9975 29.4878 44.9883 29.3965C44.9793 29.305 44.8788 28.8763 43.8748 28.867C42.8708 28.858 42.0038 29.0588 41.9033 29.3235C41.8028 29.588 41.6113 30.1905 41.4835 30.8113C41.31 31.724 39.4753 34.9825 38.4258 36.6893C38.088 36.023 37.796 35.4388 37.732 34.9733C37.6408 34.2705 37.5313 33.8415 37.6408 33.0018C37.7503 32.162 38.2433 30.9663 38.234 30.875C38.225 30.7838 38.1245 30.3548 37.1205 30.3458C36.1165 30.3365 35.2493 30.5373 35.149 30.802C35.0485 31.0668 34.939 31.6875 34.729 32.2898C34.5193 32.8923 32.0823 38.3323 31.4433 39.7378C31.1851 40.3066 30.9143 40.8695 30.631 41.4263C30.631 41.4263 30.6218 41.4538 30.5945 41.4993C30.5054 41.6738 30.4141 41.8473 30.3205 42.0195V42.0288C30.1838 42.2753 30.0375 42.5033 29.9645 42.5033C29.9098 42.5033 29.8095 41.8463 29.9828 40.9518C30.348 39.0623 31.215 36.1233 31.206 36.023C31.206 35.9683 31.3703 35.457 30.64 35.1923C29.928 34.9275 29.6725 35.3658 29.6085 35.3658C29.5448 35.3658 29.499 35.521 29.499 35.521C29.499 35.521 30.2933 32.2168 27.984 32.2168C26.5418 32.2168 24.552 33.7958 23.5665 35.2198C22.4458 35.8295 21.3261 36.441 20.2073 37.0543C19.669 37.3555 19.1123 37.6568 18.5918 37.9398C18.5553 37.9033 18.5188 37.8575 18.4823 37.821C15.6893 34.8363 10.5233 32.728 10.7423 28.721C10.8245 27.2605 11.3265 23.427 20.6638 18.772C28.349 14.9843 34.4645 16.0338 35.5233 18.3613C37.0383 21.6838 32.2465 27.8538 24.3058 28.7483C21.2753 29.086 19.6873 27.9178 19.2858 27.4798C18.8658 27.0233 18.8018 26.996 18.6465 27.0873C18.391 27.224 18.5553 27.6348 18.6465 27.872C18.884 28.4928 19.8605 29.588 21.5125 30.1265C22.973 30.6013 26.5235 30.866 30.8225 29.2048C35.6328 27.3428 39.3933 22.1673 38.2888 17.832C37.1845 13.4325 29.8825 11.9813 22.973 14.4365C18.8655 15.897 14.4115 18.197 11.2078 21.1908C7.4015 24.7508 6.79925 27.8448 7.04575 29.1408C7.931 33.741 14.2745 36.7348 16.812 38.9528C16.6843 39.0258 16.5655 39.0898 16.4653 39.1445C15.1965 39.7743 10.359 42.3025 9.154 44.977C7.785 48.0073 9.37325 50.1795 10.4228 50.4715C13.6813 51.3753 17.031 49.7505 18.8293 47.067C20.6273 44.3835 20.4083 40.897 19.5775 39.2998C19.5686 39.2795 19.5563 39.261 19.541 39.245C19.8698 39.0533 20.2073 38.8525 20.536 38.6608C21.14 38.3038 21.7517 37.9599 22.3705 37.6293C22.0603 38.4783 21.832 39.4913 21.7225 40.9518C21.5858 42.6678 22.2885 44.8948 23.2103 45.771C23.621 46.1543 24.1048 46.1635 24.4153 46.1635C25.4923 46.1635 25.976 45.269 26.5145 44.2103C27.1715 42.914 27.765 41.408 27.765 41.408C27.765 41.408 27.0255 45.479 29.0335 45.479C29.7638 45.479 30.503 44.5298 30.8318 44.046V44.055C30.8318 44.055 30.85 44.0278 30.8865 43.9638C30.9595 43.845 31.005 43.772 31.005 43.772V43.7538C31.2973 43.2428 31.9543 42.0835 32.931 40.1575C34.1905 37.675 35.4045 34.5718 35.4045 34.5718C35.4045 34.5718 35.514 35.3293 35.8883 36.5888C36.1073 37.3283 36.5638 38.1405 36.9288 38.9255C36.6368 39.3363 36.4543 39.5643 36.4543 39.5643L36.4633 39.5735C36.226 39.8838 35.9705 40.2215 35.6875 40.55C34.6925 41.7368 33.506 43.0968 33.3418 43.4893C33.15 43.9548 33.1958 44.2923 33.5608 44.5663C33.8255 44.767 34.3 44.7943 34.7838 44.767C35.6783 44.703 36.3083 44.484 36.6185 44.347C37.1023 44.1738 37.6683 43.909 38.1975 43.5165C39.1743 42.7955 39.7675 41.764 39.7128 40.404C39.6853 39.6555 39.4388 38.9073 39.1378 38.2043C39.229 38.0765 39.311 37.9488 39.4023 37.821C40.945 35.5665 42.1405 33.093 42.1405 33.093C42.1405 33.093 42.25 33.8505 42.6243 35.1103C42.8068 35.749 43.181 36.4428 43.5098 37.1183C42.0585 38.2958 41.164 39.6648 40.8445 40.5593C40.2695 42.2205 40.7168 42.9688 41.5655 43.1423C41.949 43.2245 42.4965 43.042 42.8983 42.8685C43.4093 42.7043 44.0118 42.4213 44.5868 42.0013C45.5633 41.2803 46.5035 40.2763 46.4488 38.9163C46.4213 38.2958 46.257 37.684 46.0288 37.0908C47.261 36.5798 48.8493 36.2968 50.8755 36.534C55.2203 37.0453 56.0783 39.756 55.9138 40.897C55.7495 42.0378 54.8368 42.6585 54.5355 42.8503C54.2345 43.042 54.134 43.1058 54.1615 43.2428C54.198 43.4435 54.344 43.4343 54.5995 43.3978C54.9555 43.334 56.8813 42.476 56.9635 40.3768C57.1005 37.6933 54.5448 34.7633 50.0268 34.7908ZM16.5108 46.0905C15.0688 47.6603 13.0608 48.2538 12.1935 47.7518C11.2625 47.213 11.6275 44.8948 13.3985 43.2335C14.4753 42.2205 15.8628 41.2803 16.7845 40.7053C16.9945 40.5775 17.3048 40.395 17.679 40.1668C17.743 40.1303 17.7795 40.112 17.7795 40.112L17.9985 39.975C18.6465 42.3483 18.0258 44.4385 16.5108 46.0905ZM27.0073 38.9528C26.5053 40.176 25.4558 43.3065 24.8168 43.1333C24.2693 42.987 23.9315 40.614 24.7073 38.2683C25.0998 37.0908 25.9303 35.6853 26.414 35.1375C27.199 34.2613 28.066 33.9693 28.276 34.3253C28.5408 34.7908 27.3178 38.186 27.0073 38.9528ZM35.6693 43.0968C35.4593 43.2063 35.2585 43.2793 35.1673 43.2245C35.1033 43.188 35.2585 43.042 35.2585 43.042C35.2585 43.042 36.3448 41.8735 36.7738 41.3443C37.02 41.0338 37.3123 40.6688 37.6225 40.258V40.3768C37.6225 41.7733 36.2718 42.7133 35.6693 43.0968ZM42.3505 41.5723C42.1953 41.4628 42.2228 41.0978 42.743 39.9568C42.9438 39.5095 43.4185 38.7613 44.2308 38.04C44.322 38.3323 44.386 38.615 44.3768 38.8798C44.3678 40.6415 43.108 41.2985 42.3505 41.5723Z" fill="white"/>
</g>
</g>
<defs>
<clipPath id="clip0_190_24">
<rect width="64" height="64" fill="white"/>
</clipPath>
</defs>
</svg>
