<svg width="64" height="64" viewBox="0 0 64 64" fill="none" xmlns="http://www.w3.org/2000/svg">
<g clip-path="url(#clip0_190_12)">
<path d="M49 0H15C6.71573 0 0 6.71573 0 15V49C0 57.2843 6.71573 64 15 64H49C57.2843 64 64 57.2843 64 49V15C64 6.71573 57.2843 0 49 0Z" fill="#F0DB4F"/>
<path d="M16.828 53.4828L21.7255 50.5188C22.6705 52.1941 23.53 53.6116 25.5917 53.6116C27.568 53.6116 28.814 52.8386 28.814 49.8316V29.3821H34.8285V49.9166C34.8285 56.1458 31.177 58.9813 25.8495 58.9813C21.0383 58.9813 18.2455 56.4896 16.8277 53.4823M38.0952 52.8383L42.9922 50.0031C44.2815 52.1083 45.957 53.6548 48.921 53.6548C51.4133 53.6548 53.0022 52.4088 53.0022 50.6903C53.0022 48.6283 51.3698 47.8978 48.6203 46.6953L47.117 46.0506C42.7778 44.2036 39.8993 41.8836 39.8993 36.9861C39.8993 32.4751 43.3363 29.0381 48.7065 29.0381C52.53 29.0381 55.2795 30.3701 57.2555 33.8498L52.5728 36.8571C51.5415 35.0098 50.425 34.2796 48.7065 34.2796C46.945 34.2796 45.828 35.3966 45.828 36.8571C45.828 38.6613 46.945 39.3918 49.5225 40.5091L51.026 41.1533C56.1382 43.3446 59.0168 45.5781 59.0168 50.6043C59.0168 56.0178 54.7638 58.9818 49.05 58.9818C43.4653 58.9818 39.8565 56.3183 38.0952 52.8383Z" fill="#323330"/>
</g>
<defs>
<clipPath id="clip0_190_12">
<rect width="64" height="64" fill="white"/>
</clipPath>
</defs>
</svg>
