<svg width="64" height="64" viewBox="0 0 64 64" fill="none" xmlns="http://www.w3.org/2000/svg">
<g clip-path="url(#clip0_190_5)">
<g clip-path="url(#clip1_190_5)">
<path d="M8.86449 41.9788L5.51649 43.1916L5.33649 53.0689L16.9265 48.8702C12.9515 47.5463 10.0485 45.2163 8.86449 41.9788Z" fill="#FDBD39"/>
<path d="M10.6167 31.5317L-1 35.7402L5.5165 43.1916L8.8645 41.9788C7.684 38.7507 8.412 35.1015 10.6167 31.5317Z" fill="#F69833"/>
<path d="M30.1655 17.2794C15.3727 22.6384 5.836 33.6966 8.8645 41.9789L62.4337 22.572C59.4052 14.2897 44.9582 11.9201 30.1655 17.2789" fill="#FECF33"/>
<path d="M41.133 47.2715C55.9255 41.9125 65.4805 30.9031 62.4338 22.572L8.8645 41.9787C11.911 50.3098 26.3403 52.6303 41.133 47.2715Z" fill="#EE6723"/>
<path d="M62.4338 22.5718L8.8645 41.9789C9.9135 44.8474 13.9135 46.2605 19.5263 46.2605C24.998 46.2605 32.0025 44.9185 39.305 42.273C54.0978 36.9139 64.5055 28.2372 62.4338 22.5723" fill="#F69833"/>
<path d="M51.7723 18.2903C46.3003 18.2903 39.2958 19.6325 31.9933 22.2778C17.2008 27.6369 6.79303 36.3135 8.86453 41.9788L62.4338 22.5719C61.385 19.7034 57.3848 18.2903 51.7723 18.2903Z" fill="#FDBD39"/>
<path d="M48.8138 53.5919H48.8133C47.2373 53.5919 44.912 52.18 41.9023 49.3956C38.3413 46.1015 34.2623 41.2768 30.4168 35.8099C26.571 30.3433 23.411 24.8781 21.5188 20.421C19.457 15.5635 19.163 12.5768 20.645 11.544C20.97 11.3177 21.3618 11.2031 21.809 11.2031C23.0145 11.2031 25.3633 12.0932 29.7065 16.3333L29.8015 16.426L29.7885 16.5577C29.7589 16.862 29.7317 17.1665 29.707 17.4713L29.6588 18.0703L29.2325 17.6446C24.553 12.9693 22.493 12.4645 21.8245 12.4645C21.6338 12.4645 21.482 12.503 21.3733 12.5788C20.7303 13.0268 20.689 15.2204 22.6878 19.9292C24.5463 24.3069 27.6603 29.6897 31.4563 35.0852C35.2525 40.4814 39.2688 45.2351 42.7663 48.4704C46.5373 51.9589 48.2368 52.3355 48.7923 52.3355C48.984 52.3355 49.14 52.2948 49.2555 52.214C49.9338 51.7417 49.9345 49.3917 47.7055 44.3235L47.603 44.0909L47.8273 43.9694C48.0513 43.8477 48.268 43.728 48.471 43.6134L48.7395 43.4622L48.863 43.7431C50.4435 47.3342 51.921 51.8984 49.9838 53.2491C49.6573 53.4764 49.2638 53.5919 48.8138 53.5919ZM48.8133 53.0378H48.8138L48.8135 53.3148L48.8133 53.0378Z" fill="#EE6723"/>
<path d="M41.492 47.1201L41.4695 47.396C41.0955 51.985 40.1108 57.5022 37.5433 57.7253C37.4918 57.7301 37.4383 57.7323 37.3845 57.7323C35.6405 57.7323 33.9903 55.2541 32.4803 50.3666C31.0513 45.7426 29.9428 39.5342 29.3583 32.885C28.7738 26.2371 28.7825 19.9312 29.3828 15.1295C30.0375 9.89694 31.283 7.16412 33.0853 7.00744C33.1388 7.00248 33.194 7 33.2485 7C34.5138 7 36.4208 8.42058 38.3728 15.0385L37.0983 15.2825C36.4465 13.0711 35.736 11.2724 35.0308 10.0365C34.3785 8.89336 33.7443 8.26389 33.245 8.26389C33.2285 8.26389 33.212 8.26439 33.1958 8.26563C32.4145 8.33381 31.2768 10.213 30.6423 15.2855C30.0528 20.0014 30.0455 26.2125 30.6223 32.775C31.1995 39.3384 32.29 45.4541 33.6933 49.9955C34.3215 52.0291 35.0108 53.7053 35.6865 54.8428C36.3095 55.8915 36.9125 56.4691 37.384 56.4691C37.4005 56.4691 37.4165 56.4684 37.4328 56.4672C38.1803 56.4022 39.589 54.4466 40.1818 47.5659L41.492 47.1201Z" fill="#EE6723"/>
</g>
</g>
<defs>
<clipPath id="clip0_190_5">
<rect width="64" height="64" fill="white"/>
</clipPath>
<clipPath id="clip1_190_5">
<rect width="64" height="50.8235" fill="white" transform="translate(-1 7)"/>
</clipPath>
</defs>
</svg>
