<svg width="64" height="64" viewBox="0 0 64 64" fill="none" xmlns="http://www.w3.org/2000/svg">
<g clip-path="url(#clip0_190_4)">
<path d="M19.7692 63.9998C25.7138 63.9998 30.5385 59.2212 30.5385 53.3332V42.6665H19.7692C13.8246 42.6665 9 47.4452 9 53.3332C9 59.2212 13.8246 63.9998 19.7692 63.9998Z" fill="#0ACF83"/>
<path d="M9 32.0002C9 26.1122 13.8246 21.3335 19.7692 21.3335H30.5385V42.6668H19.7692C13.8246 42.6668 9 37.8882 9 32.0002Z" fill="#A259FF"/>
<path d="M9 10.6667C9 4.77867 13.8246 0 19.7692 0H30.5385V21.3333H19.7692C13.8246 21.3333 9 16.5547 9 10.6667Z" fill="#F24E1E"/>
<path d="M30.5385 0H41.3077C47.2523 0 52.0769 4.77867 52.0769 10.6667C52.0769 16.5547 47.2523 21.3333 41.3077 21.3333H30.5385V0Z" fill="#FF7262"/>
<path d="M52.0769 31.9997C52.0769 37.8877 47.2523 42.6663 41.3077 42.6663C35.3631 42.6663 30.5385 37.8877 30.5385 31.9997C30.5385 26.1117 35.3631 21.333 41.3077 21.333C47.2523 21.333 52.0769 26.1117 52.0769 31.9997Z" fill="#1ABCFE"/>
</g>
<defs>
<clipPath id="clip0_190_4">
<rect width="43.0769" height="64" fill="white" transform="translate(9)"/>
</clipPath>
</defs>
</svg>
