<svg width="64" height="64" viewBox="0 0 64 64" fill="none" xmlns="http://www.w3.org/2000/svg">
<g clip-path="url(#clip0_179_14)">
<path d="M32 0.781253C34.9375 0.781253 37.7708 1.15625 40.5 1.90625C43.2292 2.65625 45.7708 3.73959 48.125 5.15625C50.4792 6.57292 52.6354 8.23959 54.5937 10.1563C56.5521 12.0729 58.2292 14.2292 59.625 16.625C61.0208 19.0208 62.0937 21.5729 62.8437 24.2813C63.5937 26.9896 63.9792 29.8229 64 32.7813C64 36.2188 63.4792 39.5313 62.4375 42.7188C61.3958 45.9062 59.9062 48.8333 57.9687 51.5C56.0312 54.1667 53.7292 56.5 51.0625 58.5C48.3958 60.5 45.4167 62.0521 42.125 63.1562C42.0625 63.1771 41.9687 63.1875 41.8437 63.1875C41.7187 63.1875 41.625 63.1979 41.5625 63.2187C41.0625 63.2187 40.6667 63.0729 40.375 62.7812C40.0833 62.4896 39.9375 62.1042 39.9375 61.625L39.9375 57.25C39.9375 55.8125 39.9479 54.3437 39.9687 52.8437C39.9687 51.7812 39.8125 50.7083 39.5 49.625C39.1875 48.5417 38.625 47.6354 37.8125 46.9062C40.2292 46.6354 42.3437 46.1458 44.1562 45.4375C45.9687 44.7292 47.4896 43.7292 48.7187 42.4375C49.9479 41.1458 50.8646 39.5833 51.4687 37.75C52.0729 35.9167 52.3854 33.7083 52.4062 31.125C52.4062 29.5 52.1354 27.9688 51.5937 26.5313C51.0521 25.0938 50.2292 23.7604 49.125 22.5313C49.3542 21.9479 49.5208 21.3438 49.625 20.7188C49.7292 20.0938 49.7812 19.4688 49.7812 18.8438C49.7812 18.0313 49.6979 17.2292 49.5312 16.4375C49.3646 15.6458 49.125 14.8542 48.8125 14.0625C48.7083 14.0208 48.5937 14 48.4687 14C48.3437 14 48.2292 14 48.125 14C47.4583 14 46.7604 14.1042 46.0312 14.3125C45.3021 14.5208 44.5833 14.7917 43.875 15.125C43.1667 15.4583 42.4687 15.8229 41.7812 16.2188C41.0937 16.6146 40.5 16.9896 40 17.3438C37.3958 16.6146 34.7292 16.25 32 16.25C29.2708 16.25 26.6042 16.6146 24 17.3438C23.4792 16.9896 22.8854 16.6146 22.2187 16.2188C21.5521 15.8229 20.8646 15.4688 20.1562 15.1563C19.4479 14.8438 18.7187 14.5729 17.9687 14.3437C17.2187 14.1146 16.5208 14 15.875 14L15.5312 14C15.4062 14 15.2917 14.0208 15.1875 14.0625C14.8958 14.8333 14.6667 15.6146 14.5 16.4062C14.3333 17.1979 14.2396 18.0104 14.2187 18.8437C14.2187 19.4687 14.2708 20.0937 14.375 20.7187C14.4792 21.3437 14.6458 21.9479 14.875 22.5312C13.7708 23.7396 12.9479 25.0625 12.4062 26.5C11.8646 27.9375 11.5937 29.4792 11.5937 31.125C11.5937 33.6667 11.8958 35.8646 12.5 37.7187C13.1042 39.5729 14.0208 41.1354 15.25 42.4062C16.4792 43.6771 18 44.6875 19.8125 45.4375C21.625 46.1875 23.7396 46.6875 26.1562 46.9375C25.5521 47.4792 25.0937 48.125 24.7812 48.875C24.4687 49.625 24.25 50.4062 24.125 51.2187C23.5625 51.4896 22.9687 51.6979 22.3437 51.8437C21.7187 51.9896 21.0937 52.0625 20.4687 52.0625C19.1354 52.0625 18.0312 51.75 17.1562 51.125C16.2812 50.5 15.5 49.6458 14.8125 48.5625C14.5625 48.1667 14.2604 47.7708 13.9062 47.375C13.5521 46.9792 13.1667 46.625 12.75 46.3125C12.3333 46 11.8854 45.75 11.4062 45.5625C10.9271 45.375 10.4271 45.2708 9.90625 45.25L9.53125 45.25C9.36458 45.25 9.20833 45.2812 9.0625 45.3437C8.91666 45.4062 8.77083 45.4687 8.625 45.5312C8.47916 45.5937 8.41666 45.6979 8.4375 45.8437C8.4375 46.0937 8.58333 46.3333 8.875 46.5625C9.16666 46.7917 9.40625 46.9792 9.59375 47.125L9.6875 47.1875C10.1458 47.5417 10.5417 47.875 10.875 48.1875C11.2083 48.5 11.5208 48.8437 11.8125 49.2187C12.1042 49.5937 12.3437 49.9896 12.5312 50.4062C12.7187 50.8229 12.9583 51.3125 13.25 51.875C13.9583 53.5 14.9479 54.6771 16.2187 55.4062C17.4896 56.1354 19.0208 56.5104 20.8125 56.5312C21.3542 56.5312 21.8958 56.5 22.4375 56.4375C22.9792 56.375 23.5208 56.2812 24.0625 56.1562L24.0625 61.5937C24.0625 62.0937 23.9167 62.4896 23.625 62.7812C23.3333 63.0729 22.9271 63.2187 22.4062 63.2187L22.1562 63.2187C22.0521 63.2187 21.9583 63.1979 21.875 63.1562C18.6042 62.0937 15.625 60.5625 12.9375 58.5625C10.25 56.5625 7.94791 54.2187 6.03125 51.5312C4.11458 48.8437 2.63541 45.9062 1.59375 42.7187C0.55208 39.5312 0.0208302 36.2187 -2.79753e-06 32.7812C-2.54072e-06 29.8437 0.374998 27.0104 1.125 24.2812C1.875 21.5521 2.95833 19.0104 4.375 16.6562C5.79167 14.3021 7.45833 12.1458 9.375 10.1875C11.2917 8.22917 13.4479 6.55208 15.8437 5.15625C18.2396 3.76042 20.7917 2.6875 23.5 1.9375C26.2083 1.1875 29.0417 0.802086 32 0.781253Z" fill="black"/>
</g>
<defs>
<clipPath id="clip0_179_14">
<rect width="64" height="64" fill="white"/>
</clipPath>
</defs>
</svg>
