<svg width="64" height="64" viewBox="0 0 64 64" fill="none" xmlns="http://www.w3.org/2000/svg">
<path d="M4.81249 16.0905C-0.702006 24.016 -0.0155056 34.3285 4.19699 42.7505C4.29699 42.9525 4.40199 43.151 4.50549 43.3495L4.70249 43.729L4.82549 43.9475L5.04499 44.3405C5.17599 44.571 5.30999 44.8005 5.44699 45.03L5.67649 45.408C5.82849 45.6535 5.98399 45.896 6.14299 46.138L6.34199 46.445C6.56149 46.7725 6.78599 47.0995 7.01799 47.4205L7.03749 47.4455L7.15149 47.5995C7.35199 47.876 7.55849 48.149 7.76749 48.419L7.99949 48.714C8.18599 48.9485 8.37549 49.1815 8.56849 49.4135L8.786 49.6735C9.04548 49.9797 9.30985 50.2818 9.57899 50.5795L9.59549 50.596L9.62599 50.63C9.89052 50.9171 10.1592 51.2003 10.432 51.4795L10.6905 51.74C10.902 51.953 11.117 52.1625 11.334 52.371L11.5975 52.621C11.8875 52.8945 12.1805 53.1625 12.4795 53.4245L12.4935 53.4355L12.647 53.5665C12.9105 53.7945 13.1785 54.021 13.4485 54.243L13.7805 54.5075C14.001 54.6845 14.224 54.8585 14.4485 55.0295L14.8055 55.301C15.0535 55.4835 15.303 55.663 15.555 55.8385L15.828 56.032L15.903 56.0855C16.142 56.25 16.3865 56.4085 16.631 56.567L16.946 56.777C17.321 57.014 17.701 57.2485 18.0855 57.475L18.4005 57.6525C18.683 57.8155 18.9675 57.9755 19.2555 58.132C19.4115 58.216 19.5715 58.2955 19.7285 58.376C19.932 58.4825 20.134 58.5905 20.341 58.694L20.4825 58.7625L20.733 58.8835C21.0535 59.0365 21.3765 59.187 21.703 59.332L21.908 59.424C22.2823 59.5878 22.6595 59.7446 23.0395 59.8945L23.315 60.003C23.667 60.1385 24.024 60.2725 24.3825 60.3985L24.5165 60.445C24.91 60.5825 25.307 60.71 25.707 60.8345L25.9945 60.9205C26.4015 61.043 26.804 61.1895 27.2235 61.267C53.893 66.1305 61.64 45.2405 61.64 45.2405C55.1335 53.717 43.5845 55.953 32.642 53.4635C32.2275 53.37 31.8255 53.2405 31.421 53.121L31.1165 53.0285C30.7223 52.9077 30.3303 52.7802 29.9405 52.646L29.779 52.5875C29.4314 52.4647 29.0857 52.3365 28.742 52.203L28.451 52.0885C28.075 51.94 27.701 51.785 27.3315 51.623L27.108 51.524C26.7915 51.3811 26.4767 51.2346 26.1635 51.0845L25.8905 50.9535C25.645 50.834 25.402 50.707 25.16 50.582C24.998 50.4965 24.833 50.416 24.6725 50.327C24.3779 50.1684 24.086 50.0047 23.797 49.836L23.5015 49.671C23.1177 49.4445 22.7376 49.2116 22.3615 48.9725L22.054 48.7675C21.7806 48.5922 21.51 48.4123 21.2425 48.228L20.9815 48.0445C20.7239 47.8624 20.4682 47.6776 20.2145 47.49L19.875 47.233C19.6419 47.0559 19.4112 46.8755 19.183 46.692L18.8745 46.4445C18.5839 46.2063 18.2965 45.9641 18.0125 45.718L17.918 45.6385C17.612 45.3685 17.31 45.0939 17.012 44.815L16.7565 44.5695C16.536 44.3595 16.319 44.148 16.1055 43.931L15.8505 43.6765C15.5795 43.3993 15.3132 43.1176 15.0515 42.8315L15.012 42.7895C14.7363 42.4871 14.466 42.1798 14.2015 41.8675L13.9895 41.6155C13.7918 41.3778 13.5973 41.1374 13.406 40.8945L13.1925 40.6285C12.9637 40.3328 12.7392 40.0337 12.519 39.7315C6.44399 31.4445 4.26099 20.0155 9.11649 10.6295M21.931 9.41254C17.9425 15.1515 18.1595 22.8345 21.2705 28.904C21.7911 29.9243 22.3805 30.9081 23.0345 31.8485C23.632 32.705 24.2945 33.724 25.0875 34.412C25.3775 34.7296 25.6759 35.0394 25.9825 35.341L26.2185 35.5735C26.5163 35.8638 26.821 36.1469 27.1325 36.4225L27.1695 36.4545L27.1785 36.4635C27.5269 36.7669 27.8828 37.0615 28.246 37.347L28.4885 37.536C28.8536 37.8173 29.2259 38.0893 29.605 38.3515L29.6375 38.376C29.8055 38.492 29.9765 38.6 30.147 38.712L30.3885 38.8715C30.6605 39.046 30.936 39.216 31.216 39.379L31.3335 39.447C31.575 39.586 31.8195 39.723 32.065 39.856L32.3255 39.9915C32.495 40.08 32.6645 40.1705 32.837 40.2565L32.9145 40.2915C33.266 40.4645 33.6205 40.6315 33.9825 40.789L34.2185 40.886C34.508 41.009 34.8005 41.129 35.0935 41.241L35.4685 41.3785C35.735 41.4775 36.0025 41.5675 36.272 41.658L36.6355 41.7745C37.019 41.8935 37.398 42.044 37.7975 42.1105C58.389 45.522 63.143 29.6675 63.143 29.6675C58.858 35.839 50.559 38.784 41.7035 36.485C41.312 36.3821 40.9231 36.2697 40.537 36.148L40.1865 36.0345C39.9129 35.946 39.641 35.8524 39.371 35.7535L39.003 35.6165C38.7084 35.5035 38.4157 35.3854 38.125 35.2625L37.8885 35.1625C37.5264 35.0049 37.1683 34.8384 36.8145 34.663C36.633 34.5745 36.4545 34.481 36.2755 34.389L35.9645 34.229C35.7351 34.1047 35.5079 33.9764 35.283 33.844L35.12 33.7515C34.8415 33.5891 34.5662 33.4211 34.2945 33.2475L34.0455 33.0815C33.8661 32.9656 33.6879 32.8477 33.511 32.728C33.1335 32.4656 32.7624 32.1942 32.398 31.914L32.1475 31.7165C28.2715 28.6565 25.1985 24.4735 23.738 19.731C22.207 14.813 22.537 9.29204 25.1895 4.81104M36.3285 4.42354C33.9775 7.88354 33.7465 12.1805 35.378 16.0015C37.0985 20.058 40.6235 23.2395 44.738 24.749C44.9075 24.8115 45.0775 24.8675 45.249 24.926L45.4745 24.9975C45.717 25.0735 45.9575 25.162 46.208 25.2095C57.578 27.4065 60.662 19.375 61.4825 18.1925C58.7815 22.082 54.2415 23.0155 48.671 21.6635C48.231 21.557 47.7475 21.398 47.3235 21.2475C46.7788 21.054 46.2446 20.8322 45.723 20.583C44.7334 20.1066 43.7934 19.5331 42.917 18.871C37.9325 15.0885 34.836 7.87404 38.0885 1.99854" fill="#0868AC"/>
</svg>
