<svg width="64" height="64" viewBox="0 0 64 64" fill="none" xmlns="http://www.w3.org/2000/svg">
<g clip-path="url(#clip0_178_3)">
<mask id="mask0_178_3" style="mask-type:alpha" maskUnits="userSpaceOnUse" x="0" y="0" width="64" height="64">
<path fill-rule="evenodd" clip-rule="evenodd" d="M45.3835 63.7264C45.8928 63.926 46.4375 64.0181 46.9837 63.997C47.5299 63.976 48.066 63.8421 48.5585 63.6038L61.735 57.2304C62.4136 56.902 62.9861 56.3878 63.3868 55.7468C63.7875 55.1058 64.0001 54.3641 64 53.6071V10.3923C64.0002 9.63517 63.7877 8.8934 63.387 8.25233C62.9863 7.61126 62.4137 7.09693 61.735 6.76854L48.5585 0.396103C47.814 0.0359945 46.9765 -0.0825702 46.162 0.0568181C45.3474 0.196206 44.5961 0.586654 44.0121 1.17412L18.7871 24.3067L7.80016 15.9229C7.30453 15.5446 6.69281 15.3527 6.07112 15.3804C5.44943 15.4081 4.85702 15.6537 4.39667 16.0746L0.872677 19.2968C0.598052 19.5479 0.378585 19.8538 0.228316 20.195C0.0780462 20.5362 0.000283143 20.9052 7.71777e-07 21.2784C-0.0002816 21.6515 0.076923 22.0206 0.226676 22.3621C0.376428 22.7035 0.595432 23.0098 0.869677 23.2613L10.3981 31.9994L0.870177 40.7381C0.596081 40.9897 0.377209 41.2959 0.227549 41.6373C0.0778896 41.9787 0.00073513 42.3477 0.00101747 42.7208C0.00129982 43.0938 0.0790127 43.4628 0.229189 43.8039C0.379365 44.1451 0.598701 44.451 0.873177 44.7021L4.39717 47.9243C4.85741 48.3453 5.44981 48.5911 6.07152 48.6189C6.69324 48.6467 7.30501 48.4548 7.80066 48.0765L18.7876 39.6932L44.0126 62.8253C44.4026 63.218 44.8692 63.5249 45.3835 63.7264ZM48.0095 17.3955L28.8701 31.9994L48.01 46.6039L48.0095 17.3955Z" fill="white"/>
</mask>
<g mask="url(#mask0_178_3)">
<path d="M61.6983 6.77943L48.5193 0.396441C47.7749 0.0360944 46.9376 -0.0825989 46.1232 0.0567905C45.3088 0.19618 44.5576 0.586758 43.9736 1.17446L0.830907 40.7385C0.556773 40.9899 0.337849 41.2961 0.188147 41.6375C0.0384462 41.9789 -0.0387336 42.348 -0.0384514 42.7211C-0.0381692 43.0942 0.0395688 43.4632 0.189786 43.8044C0.340004 44.1456 0.559392 44.4514 0.833906 44.7024L4.35776 47.9246C4.81813 48.3456 5.41049 48.5914 6.03211 48.6192C6.65374 48.647 7.26545 48.4551 7.76118 48.0769L59.715 8.43449C61.4579 7.10461 63.9614 8.35508 63.9614 10.5554V10.4017C63.9614 9.64479 63.749 8.9033 63.3486 8.26244C62.9483 7.62158 62.3762 7.10787 61.6983 6.77943Z" fill="#0065A9"/>
<g filter="url(#filter0_d_178_3)">
<path d="M61.698 57.2199L48.5191 63.6019C47.7748 63.9623 46.9375 64.0812 46.1231 63.942C45.3087 63.8028 44.5575 63.4124 43.9733 62.8248L0.830663 23.2603C0.556529 23.0089 0.337605 22.7027 0.187903 22.3613C0.038202 22.0199 -0.0389777 21.6508 -0.0386955 21.2777C-0.0384133 20.9045 0.0393247 20.5356 0.189542 20.1944C0.33976 19.8532 0.559147 19.5473 0.833662 19.2963L4.35751 16.0742C4.81789 15.6531 5.41024 15.4074 6.03187 15.3796C6.6535 15.3518 7.2652 15.5436 7.76094 15.9219L59.7147 55.5638C61.4577 56.8942 63.9612 55.6437 63.9612 53.4433V53.5971C63.9611 54.354 63.7487 55.0955 63.3484 55.7364C62.948 56.3772 62.376 56.8914 61.698 57.2199Z" fill="#007ACC"/>
</g>
<g filter="url(#filter1_d_178_3)">
<path d="M48.5195 63.6037C47.7749 63.9638 46.9375 64.0823 46.1231 63.9429C45.3086 63.8034 44.5574 63.4128 43.9733 62.8252C45.4484 64.3089 47.9708 63.2579 47.9708 61.1596V2.83867C47.9708 0.74033 45.4484 -0.310602 43.9733 1.17357C44.5574 0.585933 45.3086 0.195373 46.1231 0.0559021C46.9375 -0.0835685 47.7749 0.0349425 48.5195 0.395045L61.696 6.76899C62.3745 7.09717 62.9471 7.6114 63.3478 8.25249C63.7485 8.89357 63.9611 9.63545 63.9611 10.3927V53.6071C63.9611 54.3643 63.7485 55.1062 63.3478 55.7473C62.9471 56.3884 62.3745 56.9026 61.696 57.2308L48.5195 63.6037Z" fill="#1F9CF0"/>
</g>
<path opacity="0.25" fill-rule="evenodd" clip-rule="evenodd" d="M45.3177 63.7264C45.8266 63.926 46.3709 64.018 46.9167 63.9969C47.4625 63.9758 47.9981 63.842 48.4903 63.6038L61.6587 57.2304C62.337 56.902 62.9092 56.3876 63.3097 55.7466C63.7102 55.1055 63.9225 54.3637 63.9224 53.6066V10.3923C63.9225 9.63517 63.7102 8.8934 63.3097 8.25233C62.9092 7.61126 62.337 7.09693 61.6587 6.76854L48.4903 0.396103C47.7462 0.0359945 46.9092 -0.0825701 46.0951 0.056818C45.2811 0.196206 44.5303 0.586654 43.9465 1.17412L18.7369 24.3067L7.75661 15.9234C7.26129 15.5451 6.64993 15.3532 6.02862 15.3809C5.40731 15.4086 4.81525 15.6542 4.35518 16.0751L0.833331 19.2973C0.558941 19.5484 0.339669 19.8544 0.189535 20.1956C0.0394006 20.5368 -0.0382913 20.9057 -0.0385734 21.2789C-0.0388556 21.652 0.0382781 22.0211 0.187896 22.3625C0.337514 22.704 0.556323 23.0102 0.830333 23.2618L10.353 31.9994L0.830832 40.7376C0.556754 40.9891 0.337883 41.2954 0.188221 41.6368C0.0385595 41.9783 -0.0385982 42.3474 -0.038316 42.7205C-0.0380338 43.0937 0.0396821 43.4627 0.18986 43.8039C0.340038 44.1451 0.559372 44.451 0.833831 44.7021L4.35568 47.9243C4.81569 48.3452 5.40772 48.5909 6.02903 48.6188C6.65034 48.6466 7.26173 48.4547 7.75711 48.0765L18.7379 39.6927L43.9475 62.8253C44.3372 63.218 44.8038 63.5249 45.3177 63.7264ZM47.9421 17.395L28.8138 31.9994L47.9421 46.6034V17.395Z" fill="url(#paint0_linear_178_3)"/>
</g>
</g>
<defs>
<filter id="filter0_d_178_3" x="-8.3727" y="7.04295" width="80.6679" height="65.2896" filterUnits="userSpaceOnUse" color-interpolation-filters="sRGB">
<feFlood flood-opacity="0" result="BackgroundImageFix"/>
<feColorMatrix in="SourceAlpha" type="matrix" values="0 0 0 0 0 0 0 0 0 0 0 0 0 0 0 0 0 0 127 0" result="hardAlpha"/>
<feOffset/>
<feGaussianBlur stdDeviation="4.167"/>
<feColorMatrix type="matrix" values="0 0 0 0 0 0 0 0 0 0 0 0 0 0 0 0 0 0 0.25 0"/>
<feBlend mode="overlay" in2="BackgroundImageFix" result="effect1_dropShadow_178_3"/>
<feBlend mode="normal" in="SourceGraphic" in2="effect1_dropShadow_178_3" result="shape"/>
</filter>
<filter id="filter1_d_178_3" x="35.6393" y="-8.33498" width="36.6558" height="80.6687" filterUnits="userSpaceOnUse" color-interpolation-filters="sRGB">
<feFlood flood-opacity="0" result="BackgroundImageFix"/>
<feColorMatrix in="SourceAlpha" type="matrix" values="0 0 0 0 0 0 0 0 0 0 0 0 0 0 0 0 0 0 127 0" result="hardAlpha"/>
<feOffset/>
<feGaussianBlur stdDeviation="4.167"/>
<feColorMatrix type="matrix" values="0 0 0 0 0 0 0 0 0 0 0 0 0 0 0 0 0 0 0.25 0"/>
<feBlend mode="overlay" in2="BackgroundImageFix" result="effect1_dropShadow_178_3"/>
<feBlend mode="normal" in="SourceGraphic" in2="effect1_dropShadow_178_3" result="shape"/>
</filter>
<linearGradient id="paint0_linear_178_3" x1="31.9419" y1="-0.000949379" x2="31.9419" y2="63.9998" gradientUnits="userSpaceOnUse">
<stop stop-color="white"/>
<stop offset="1" stop-color="white" stop-opacity="0"/>
</linearGradient>
<clipPath id="clip0_178_3">
<rect width="64" height="64" fill="white"/>
</clipPath>
</defs>
</svg>
