<svg width="64" height="64" viewBox="0 0 64 64" fill="none" xmlns="http://www.w3.org/2000/svg">
<path d="M9.407 57.0615L4.38 0.676025H59.62L54.588 57.053L31.9665 63.3245L9.407 57.0615Z" fill="#1572B6"/>
<path d="M32.0005 58.5309L50.28 53.4629L54.5805 5.28589H32.0005V58.5309Z" fill="#33A9DC"/>
<path d="M32.0005 25.7145H41.1515L41.7835 18.633H32.0005V11.7175H49.3415L49.1755 13.573L47.4755 32.63H32.0005V25.7145Z" fill="white"/>
<path d="M32.0415 43.6744L32.011 43.6834L24.3095 41.6039L23.817 36.0884H16.876L17.8445 46.9469L32.01 50.8784L32.0415 50.8694V43.6744Z" fill="#EBEBEB"/>
<path d="M40.5635 32.3374L39.7305 41.5984L32.0175 43.6804V50.8754L46.1945 46.9464L46.2985 45.7779L47.5015 32.3374H40.5635Z" fill="white"/>
<path d="M32.024 11.7175V18.633H15.32L15.1815 17.079L14.8665 13.573L14.701 11.7175H32.024ZM32.0005 25.7155V32.631H24.396L24.2575 31.077L23.942 27.571L23.777 25.7155H32.0005Z" fill="#EBEBEB"/>
</svg>
